<svg width="34" height="11" viewBox="0 0 34 11" fill="none" xmlns="http://www.w3.org/2000/svg">
<path d="M4.13168 0.103637V10.1979H2.46657V2.07966L0 2.91567V1.54074L3.93131 0.103637H4.13168ZM14.3711 8.87137V10.1979H7.62772V9.05792L10.9027 5.48588C11.2619 5.08054 11.5452 4.73047 11.7525 4.43568C11.9598 4.14089 12.1049 3.87604 12.1878 3.64113C12.2753 3.40161 12.319 3.169 12.319 2.9433C12.319 2.62548 12.2592 2.34681 12.1394 2.1073C12.0242 1.86317 11.8538 1.67202 11.6281 1.53383C11.4024 1.39105 11.1284 1.31965 10.8059 1.31965C10.4328 1.31965 10.1196 1.40026 9.86629 1.56147C9.61295 1.72269 9.4218 1.94608 9.29283 2.23166C9.16386 2.51263 9.09937 2.83506 9.09937 3.19894H7.43426C7.43426 2.61397 7.56784 2.07966 7.83499 1.59602C8.10215 1.10777 8.48906 0.720856 8.99573 0.435277C9.5024 0.145092 10.1127 0 10.8267 0C11.4992 0 12.0703 0.11285 12.5401 0.338549C13.01 0.564248 13.3669 0.884373 13.6111 1.29892C13.8598 1.71347 13.9841 2.20402 13.9841 2.77058C13.9841 3.08379 13.9335 3.3947 13.8321 3.70331C13.7308 4.01192 13.5857 4.32053 13.3969 4.62914C13.2126 4.93314 12.9938 5.23945 12.7405 5.54806C12.4872 5.85206 12.2085 6.16067 11.9045 6.47389L9.7281 8.87137H14.3711ZM15.7874 9.36883C15.7874 9.11089 15.875 8.8944 16.05 8.71937C16.225 8.53973 16.4622 8.44991 16.7616 8.44991C17.0656 8.44991 17.3029 8.53973 17.4733 8.71937C17.6483 8.8944 17.7358 9.11089 17.7358 9.36883C17.7358 9.62677 17.6483 9.84326 17.4733 10.0183C17.3029 10.1933 17.0656 10.2808 16.7616 10.2808C16.4622 10.2808 16.225 10.1933 16.05 10.0183C15.875 9.84326 15.7874 9.62677 15.7874 9.36883ZM15.7944 3.48222C15.7944 3.22428 15.8819 3.00779 16.0569 2.83276C16.2319 2.65312 16.4691 2.5633 16.7685 2.5633C17.0725 2.5633 17.3098 2.65312 17.4802 2.83276C17.6552 3.00779 17.7427 3.22428 17.7427 3.48222C17.7427 3.74016 17.6552 3.95665 17.4802 4.13168C17.3098 4.30671 17.0725 4.39423 16.7685 4.39423C16.4691 4.39423 16.2319 4.30671 16.0569 4.13168C15.8819 3.95665 15.7944 3.74016 15.7944 3.48222ZM21.3562 4.41496H22.3511C22.7381 4.41496 23.0582 4.34817 23.3115 4.21459C23.5695 4.08101 23.7606 3.89677 23.885 3.66186C24.0093 3.42695 24.0715 3.15749 24.0715 2.85349C24.0715 2.53566 24.014 2.2639 23.8988 2.0382C23.7883 1.8079 23.6178 1.63056 23.3875 1.5062C23.1618 1.38183 22.8739 1.31965 22.5239 1.31965C22.2291 1.31965 21.9619 1.37953 21.7224 1.49929C21.4875 1.61444 21.301 1.78026 21.1628 1.99675C21.0246 2.20863 20.9555 2.46197 20.9555 2.75676H19.2835C19.2835 2.22245 19.424 1.74802 19.7049 1.33347C19.9859 0.918919 20.3682 0.594188 20.8519 0.359277C21.3401 0.119759 21.8882 0 22.4962 0C23.1457 0 23.7123 0.108244 24.1959 0.324731C24.6841 0.536612 25.0641 0.854433 25.3359 1.2782C25.6077 1.70196 25.7435 2.22705 25.7435 2.85349C25.7435 3.13906 25.6768 3.42925 25.5432 3.72404C25.4096 4.01883 25.2115 4.28829 24.949 4.53241C24.6864 4.77193 24.3594 4.96769 23.9679 5.11969C23.5764 5.26709 23.1227 5.34078 22.6068 5.34078H21.3562V4.41496ZM21.3562 5.71388V4.80187H22.6068C23.1964 4.80187 23.6984 4.87096 24.113 5.00914C24.5321 5.14733 24.873 5.33848 25.1355 5.58261C25.3981 5.82212 25.5892 6.09619 25.709 6.4048C25.8334 6.7134 25.8955 7.04044 25.8955 7.3859C25.8955 7.85572 25.8103 8.27488 25.6399 8.64337C25.4741 9.00725 25.2369 9.31586 24.9283 9.56919C24.6197 9.82253 24.2581 10.0137 23.8435 10.1427C23.4336 10.2716 22.9868 10.3361 22.5031 10.3361C22.0702 10.3361 21.6556 10.2762 21.2595 10.1565C20.8634 10.0367 20.5087 9.85938 20.1955 9.62447C19.8823 9.38495 19.6335 9.08785 19.4493 8.73318C19.2697 8.37391 19.1798 7.95936 19.1798 7.48953H20.845C20.845 7.78893 20.914 8.05378 21.0522 8.28409C21.195 8.50979 21.3931 8.68712 21.6464 8.81609C21.9044 8.94507 22.1991 9.00955 22.5308 9.00955C22.8809 9.00955 23.1826 8.94737 23.4359 8.823C23.6892 8.69864 23.8827 8.51439 24.0163 8.27027C24.1544 8.02615 24.2235 7.73136 24.2235 7.3859C24.2235 6.99438 24.1475 6.67656 23.9955 6.43243C23.8435 6.18831 23.627 6.00867 23.3461 5.89352C23.0651 5.77376 22.7335 5.71388 22.3511 5.71388H21.3562ZM34 4.32514V5.96952C34 6.75716 33.9217 7.42966 33.7651 7.98699C33.6131 8.53973 33.392 8.98882 33.1018 9.33428C32.8116 9.67974 32.4639 9.93308 32.0585 10.0943C31.6578 10.2555 31.2087 10.3361 30.7112 10.3361C30.3151 10.3361 29.9466 10.2854 29.6058 10.1841C29.2695 10.0828 28.9655 9.92386 28.6938 9.70738C28.422 9.49089 28.1894 9.21222 27.9959 8.87137C27.8071 8.52591 27.6597 8.11366 27.5537 7.63463C27.4524 7.15559 27.4017 6.60056 27.4017 5.96952V4.32514C27.4017 3.53289 27.4801 2.865 27.6367 2.32148C27.7933 1.77335 28.0167 1.32886 28.3068 0.988011C28.597 0.642552 28.9425 0.391519 29.3432 0.234912C29.7486 0.0783039 30.2 0 30.6974 0C31.0982 0 31.4666 0.0506672 31.8029 0.152002C32.1437 0.24873 32.4477 0.403035 32.7149 0.614916C32.9867 0.826797 33.217 1.10316 33.4058 1.44402C33.5993 1.78026 33.7467 2.1879 33.848 2.66694C33.9493 3.14137 34 3.6941 34 4.32514ZM32.3349 6.20443V4.07641C32.3349 3.67568 32.3119 3.32331 32.2658 3.01931C32.2197 2.7107 32.1506 2.45045 32.0585 2.23857C31.971 2.02208 31.8605 1.84705 31.7269 1.71347C31.5933 1.57529 31.4413 1.47626 31.2709 1.41638C31.1005 1.35189 30.9093 1.31965 30.6974 1.31965C30.4395 1.31965 30.2092 1.37032 30.0065 1.47165C29.8038 1.56838 29.6334 1.72499 29.4952 1.94148C29.357 2.15796 29.2511 2.44354 29.1774 2.79821C29.1083 3.14828 29.0738 3.57434 29.0738 4.07641V6.20443C29.0738 6.60977 29.0968 6.96674 29.1429 7.27535C29.1889 7.58396 29.258 7.84881 29.3501 8.0699C29.4423 8.28639 29.5528 8.46603 29.6818 8.60882C29.8153 8.747 29.9674 8.84834 30.1378 8.91282C30.3128 8.97731 30.504 9.00955 30.7112 9.00955C30.9738 9.00955 31.2064 8.95888 31.4091 8.85755C31.6117 8.75621 31.7822 8.595 31.9203 8.37391C32.0585 8.14821 32.1622 7.85572 32.2313 7.49644C32.3003 7.13717 32.3349 6.7065 32.3349 6.20443Z" fill="black" fill-opacity="0.7"/>
<path d="M4.13168 0.103637V10.1979H2.46657V2.07966L0 2.91567V1.54074L3.93131 0.103637H4.13168ZM14.3711 8.87137V10.1979H7.62772V9.05792L10.9027 5.48588C11.2619 5.08054 11.5452 4.73047 11.7525 4.43568C11.9598 4.14089 12.1049 3.87604 12.1878 3.64113C12.2753 3.40161 12.319 3.169 12.319 2.9433C12.319 2.62548 12.2592 2.34681 12.1394 2.1073C12.0242 1.86317 11.8538 1.67202 11.6281 1.53383C11.4024 1.39105 11.1284 1.31965 10.8059 1.31965C10.4328 1.31965 10.1196 1.40026 9.86629 1.56147C9.61295 1.72269 9.4218 1.94608 9.29283 2.23166C9.16386 2.51263 9.09937 2.83506 9.09937 3.19894H7.43426C7.43426 2.61397 7.56784 2.07966 7.83499 1.59602C8.10215 1.10777 8.48906 0.720856 8.99573 0.435277C9.5024 0.145092 10.1127 0 10.8267 0C11.4992 0 12.0703 0.11285 12.5401 0.338549C13.01 0.564248 13.3669 0.884373 13.6111 1.29892C13.8598 1.71347 13.9841 2.20402 13.9841 2.77058C13.9841 3.08379 13.9335 3.3947 13.8321 3.70331C13.7308 4.01192 13.5857 4.32053 13.3969 4.62914C13.2126 4.93314 12.9938 5.23945 12.7405 5.54806C12.4872 5.85206 12.2085 6.16067 11.9045 6.47389L9.7281 8.87137H14.3711ZM15.7874 9.36883C15.7874 9.11089 15.875 8.8944 16.05 8.71937C16.225 8.53973 16.4622 8.44991 16.7616 8.44991C17.0656 8.44991 17.3029 8.53973 17.4733 8.71937C17.6483 8.8944 17.7358 9.11089 17.7358 9.36883C17.7358 9.62677 17.6483 9.84326 17.4733 10.0183C17.3029 10.1933 17.0656 10.2808 16.7616 10.2808C16.4622 10.2808 16.225 10.1933 16.05 10.0183C15.875 9.84326 15.7874 9.62677 15.7874 9.36883ZM15.7944 3.48222C15.7944 3.22428 15.8819 3.00779 16.0569 2.83276C16.2319 2.65312 16.4691 2.5633 16.7685 2.5633C17.0725 2.5633 17.3098 2.65312 17.4802 2.83276C17.6552 3.00779 17.7427 3.22428 17.7427 3.48222C17.7427 3.74016 17.6552 3.95665 17.4802 4.13168C17.3098 4.30671 17.0725 4.39423 16.7685 4.39423C16.4691 4.39423 16.2319 4.30671 16.0569 4.13168C15.8819 3.95665 15.7944 3.74016 15.7944 3.48222ZM21.3562 4.41496H22.3511C22.7381 4.41496 23.0582 4.34817 23.3115 4.21459C23.5695 4.08101 23.7606 3.89677 23.885 3.66186C24.0093 3.42695 24.0715 3.15749 24.0715 2.85349C24.0715 2.53566 24.014 2.2639 23.8988 2.0382C23.7883 1.8079 23.6178 1.63056 23.3875 1.5062C23.1618 1.38183 22.8739 1.31965 22.5239 1.31965C22.2291 1.31965 21.9619 1.37953 21.7224 1.49929C21.4875 1.61444 21.301 1.78026 21.1628 1.99675C21.0246 2.20863 20.9555 2.46197 20.9555 2.75676H19.2835C19.2835 2.22245 19.424 1.74802 19.7049 1.33347C19.9859 0.918919 20.3682 0.594188 20.8519 0.359277C21.3401 0.119759 21.8882 0 22.4962 0C23.1457 0 23.7123 0.108244 24.1959 0.324731C24.6841 0.536612 25.0641 0.854433 25.3359 1.2782C25.6077 1.70196 25.7435 2.22705 25.7435 2.85349C25.7435 3.13906 25.6768 3.42925 25.5432 3.72404C25.4096 4.01883 25.2115 4.28829 24.949 4.53241C24.6864 4.77193 24.3594 4.96769 23.9679 5.11969C23.5764 5.26709 23.1227 5.34078 22.6068 5.34078H21.3562V4.41496ZM21.3562 5.71388V4.80187H22.6068C23.1964 4.80187 23.6984 4.87096 24.113 5.00914C24.5321 5.14733 24.873 5.33848 25.1355 5.58261C25.3981 5.82212 25.5892 6.09619 25.709 6.4048C25.8334 6.7134 25.8955 7.04044 25.8955 7.3859C25.8955 7.85572 25.8103 8.27488 25.6399 8.64337C25.4741 9.00725 25.2369 9.31586 24.9283 9.56919C24.6197 9.82253 24.2581 10.0137 23.8435 10.1427C23.4336 10.2716 22.9868 10.3361 22.5031 10.3361C22.0702 10.3361 21.6556 10.2762 21.2595 10.1565C20.8634 10.0367 20.5087 9.85938 20.1955 9.62447C19.8823 9.38495 19.6335 9.08785 19.4493 8.73318C19.2697 8.37391 19.1798 7.95936 19.1798 7.48953H20.845C20.845 7.78893 20.914 8.05378 21.0522 8.28409C21.195 8.50979 21.3931 8.68712 21.6464 8.81609C21.9044 8.94507 22.1991 9.00955 22.5308 9.00955C22.8809 9.00955 23.1826 8.94737 23.4359 8.823C23.6892 8.69864 23.8827 8.51439 24.0163 8.27027C24.1544 8.02615 24.2235 7.73136 24.2235 7.3859C24.2235 6.99438 24.1475 6.67656 23.9955 6.43243C23.8435 6.18831 23.627 6.00867 23.3461 5.89352C23.0651 5.77376 22.7335 5.71388 22.3511 5.71388H21.3562ZM34 4.32514V5.96952C34 6.75716 33.9217 7.42966 33.7651 7.98699C33.6131 8.53973 33.392 8.98882 33.1018 9.33428C32.8116 9.67974 32.4639 9.93308 32.0585 10.0943C31.6578 10.2555 31.2087 10.3361 30.7112 10.3361C30.3151 10.3361 29.9466 10.2854 29.6058 10.1841C29.2695 10.0828 28.9655 9.92386 28.6938 9.70738C28.422 9.49089 28.1894 9.21222 27.9959 8.87137C27.8071 8.52591 27.6597 8.11366 27.5537 7.63463C27.4524 7.15559 27.4017 6.60056 27.4017 5.96952V4.32514C27.4017 3.53289 27.4801 2.865 27.6367 2.32148C27.7933 1.77335 28.0167 1.32886 28.3068 0.988011C28.597 0.642552 28.9425 0.391519 29.3432 0.234912C29.7486 0.0783039 30.2 0 30.6974 0C31.0982 0 31.4666 0.0506672 31.8029 0.152002C32.1437 0.24873 32.4477 0.403035 32.7149 0.614916C32.9867 0.826797 33.217 1.10316 33.4058 1.44402C33.5993 1.78026 33.7467 2.1879 33.848 2.66694C33.9493 3.14137 34 3.6941 34 4.32514ZM32.3349 6.20443V4.07641C32.3349 3.67568 32.3119 3.32331 32.2658 3.01931C32.2197 2.7107 32.1506 2.45045 32.0585 2.23857C31.971 2.02208 31.8605 1.84705 31.7269 1.71347C31.5933 1.57529 31.4413 1.47626 31.2709 1.41638C31.1005 1.35189 30.9093 1.31965 30.6974 1.31965C30.4395 1.31965 30.2092 1.37032 30.0065 1.47165C29.8038 1.56838 29.6334 1.72499 29.4952 1.94148C29.357 2.15796 29.2511 2.44354 29.1774 2.79821C29.1083 3.14828 29.0738 3.57434 29.0738 4.07641V6.20443C29.0738 6.60977 29.0968 6.96674 29.1429 7.27535C29.1889 7.58396 29.258 7.84881 29.3501 8.0699C29.4423 8.28639 29.5528 8.46603 29.6818 8.60882C29.8153 8.747 29.9674 8.84834 30.1378 8.91282C30.3128 8.97731 30.504 9.00955 30.7112 9.00955C30.9738 9.00955 31.2064 8.95888 31.4091 8.85755C31.6117 8.75621 31.7822 8.595 31.9203 8.37391C32.0585 8.14821 32.1622 7.85572 32.2313 7.49644C32.3003 7.13717 32.3349 6.7065 32.3349 6.20443Z" fill="black" fill-opacity="0.7"/>
<path d="M4.13168 0.103637V10.1979H2.46657V2.07966L0 2.91567V1.54074L3.93131 0.103637H4.13168ZM14.3711 8.87137V10.1979H7.62772V9.05792L10.9027 5.48588C11.2619 5.08054 11.5452 4.73047 11.7525 4.43568C11.9598 4.14089 12.1049 3.87604 12.1878 3.64113C12.2753 3.40161 12.319 3.169 12.319 2.9433C12.319 2.62548 12.2592 2.34681 12.1394 2.1073C12.0242 1.86317 11.8538 1.67202 11.6281 1.53383C11.4024 1.39105 11.1284 1.31965 10.8059 1.31965C10.4328 1.31965 10.1196 1.40026 9.86629 1.56147C9.61295 1.72269 9.4218 1.94608 9.29283 2.23166C9.16386 2.51263 9.09937 2.83506 9.09937 3.19894H7.43426C7.43426 2.61397 7.56784 2.07966 7.83499 1.59602C8.10215 1.10777 8.48906 0.720856 8.99573 0.435277C9.5024 0.145092 10.1127 0 10.8267 0C11.4992 0 12.0703 0.11285 12.5401 0.338549C13.01 0.564248 13.3669 0.884373 13.6111 1.29892C13.8598 1.71347 13.9841 2.20402 13.9841 2.77058C13.9841 3.08379 13.9335 3.3947 13.8321 3.70331C13.7308 4.01192 13.5857 4.32053 13.3969 4.62914C13.2126 4.93314 12.9938 5.23945 12.7405 5.54806C12.4872 5.85206 12.2085 6.16067 11.9045 6.47389L9.7281 8.87137H14.3711ZM15.7874 9.36883C15.7874 9.11089 15.875 8.8944 16.05 8.71937C16.225 8.53973 16.4622 8.44991 16.7616 8.44991C17.0656 8.44991 17.3029 8.53973 17.4733 8.71937C17.6483 8.8944 17.7358 9.11089 17.7358 9.36883C17.7358 9.62677 17.6483 9.84326 17.4733 10.0183C17.3029 10.1933 17.0656 10.2808 16.7616 10.2808C16.4622 10.2808 16.225 10.1933 16.05 10.0183C15.875 9.84326 15.7874 9.62677 15.7874 9.36883ZM15.7944 3.48222C15.7944 3.22428 15.8819 3.00779 16.0569 2.83276C16.2319 2.65312 16.4691 2.5633 16.7685 2.5633C17.0725 2.5633 17.3098 2.65312 17.4802 2.83276C17.6552 3.00779 17.7427 3.22428 17.7427 3.48222C17.7427 3.74016 17.6552 3.95665 17.4802 4.13168C17.3098 4.30671 17.0725 4.39423 16.7685 4.39423C16.4691 4.39423 16.2319 4.30671 16.0569 4.13168C15.8819 3.95665 15.7944 3.74016 15.7944 3.48222ZM21.3562 4.41496H22.3511C22.7381 4.41496 23.0582 4.34817 23.3115 4.21459C23.5695 4.08101 23.7606 3.89677 23.885 3.66186C24.0093 3.42695 24.0715 3.15749 24.0715 2.85349C24.0715 2.53566 24.014 2.2639 23.8988 2.0382C23.7883 1.8079 23.6178 1.63056 23.3875 1.5062C23.1618 1.38183 22.8739 1.31965 22.5239 1.31965C22.2291 1.31965 21.9619 1.37953 21.7224 1.49929C21.4875 1.61444 21.301 1.78026 21.1628 1.99675C21.0246 2.20863 20.9555 2.46197 20.9555 2.75676H19.2835C19.2835 2.22245 19.424 1.74802 19.7049 1.33347C19.9859 0.918919 20.3682 0.594188 20.8519 0.359277C21.3401 0.119759 21.8882 0 22.4962 0C23.1457 0 23.7123 0.108244 24.1959 0.324731C24.6841 0.536612 25.0641 0.854433 25.3359 1.2782C25.6077 1.70196 25.7435 2.22705 25.7435 2.85349C25.7435 3.13906 25.6768 3.42925 25.5432 3.72404C25.4096 4.01883 25.2115 4.28829 24.949 4.53241C24.6864 4.77193 24.3594 4.96769 23.9679 5.11969C23.5764 5.26709 23.1227 5.34078 22.6068 5.34078H21.3562V4.41496ZM21.3562 5.71388V4.80187H22.6068C23.1964 4.80187 23.6984 4.87096 24.113 5.00914C24.5321 5.14733 24.873 5.33848 25.1355 5.58261C25.3981 5.82212 25.5892 6.09619 25.709 6.4048C25.8334 6.7134 25.8955 7.04044 25.8955 7.3859C25.8955 7.85572 25.8103 8.27488 25.6399 8.64337C25.4741 9.00725 25.2369 9.31586 24.9283 9.56919C24.6197 9.82253 24.2581 10.0137 23.8435 10.1427C23.4336 10.2716 22.9868 10.3361 22.5031 10.3361C22.0702 10.3361 21.6556 10.2762 21.2595 10.1565C20.8634 10.0367 20.5087 9.85938 20.1955 9.62447C19.8823 9.38495 19.6335 9.08785 19.4493 8.73318C19.2697 8.37391 19.1798 7.95936 19.1798 7.48953H20.845C20.845 7.78893 20.914 8.05378 21.0522 8.28409C21.195 8.50979 21.3931 8.68712 21.6464 8.81609C21.9044 8.94507 22.1991 9.00955 22.5308 9.00955C22.8809 9.00955 23.1826 8.94737 23.4359 8.823C23.6892 8.69864 23.8827 8.51439 24.0163 8.27027C24.1544 8.02615 24.2235 7.73136 24.2235 7.3859C24.2235 6.99438 24.1475 6.67656 23.9955 6.43243C23.8435 6.18831 23.627 6.00867 23.3461 5.89352C23.0651 5.77376 22.7335 5.71388 22.3511 5.71388H21.3562ZM34 4.32514V5.96952C34 6.75716 33.9217 7.42966 33.7651 7.98699C33.6131 8.53973 33.392 8.98882 33.1018 9.33428C32.8116 9.67974 32.4639 9.93308 32.0585 10.0943C31.6578 10.2555 31.2087 10.3361 30.7112 10.3361C30.3151 10.3361 29.9466 10.2854 29.6058 10.1841C29.2695 10.0828 28.9655 9.92386 28.6938 9.70738C28.422 9.49089 28.1894 9.21222 27.9959 8.87137C27.8071 8.52591 27.6597 8.11366 27.5537 7.63463C27.4524 7.15559 27.4017 6.60056 27.4017 5.96952V4.32514C27.4017 3.53289 27.4801 2.865 27.6367 2.32148C27.7933 1.77335 28.0167 1.32886 28.3068 0.988011C28.597 0.642552 28.9425 0.391519 29.3432 0.234912C29.7486 0.0783039 30.2 0 30.6974 0C31.0982 0 31.4666 0.0506672 31.8029 0.152002C32.1437 0.24873 32.4477 0.403035 32.7149 0.614916C32.9867 0.826797 33.217 1.10316 33.4058 1.44402C33.5993 1.78026 33.7467 2.1879 33.848 2.66694C33.9493 3.14137 34 3.6941 34 4.32514ZM32.3349 6.20443V4.07641C32.3349 3.67568 32.3119 3.32331 32.2658 3.01931C32.2197 2.7107 32.1506 2.45045 32.0585 2.23857C31.971 2.02208 31.8605 1.84705 31.7269 1.71347C31.5933 1.57529 31.4413 1.47626 31.2709 1.41638C31.1005 1.35189 30.9093 1.31965 30.6974 1.31965C30.4395 1.31965 30.2092 1.37032 30.0065 1.47165C29.8038 1.56838 29.6334 1.72499 29.4952 1.94148C29.357 2.15796 29.2511 2.44354 29.1774 2.79821C29.1083 3.14828 29.0738 3.57434 29.0738 4.07641V6.20443C29.0738 6.60977 29.0968 6.96674 29.1429 7.27535C29.1889 7.58396 29.258 7.84881 29.3501 8.0699C29.4423 8.28639 29.5528 8.46603 29.6818 8.60882C29.8153 8.747 29.9674 8.84834 30.1378 8.91282C30.3128 8.97731 30.504 9.00955 30.7112 9.00955C30.9738 9.00955 31.2064 8.95888 31.4091 8.85755C31.6117 8.75621 31.7822 8.595 31.9203 8.37391C32.0585 8.14821 32.1622 7.85572 32.2313 7.49644C32.3003 7.13717 32.3349 6.7065 32.3349 6.20443Z" fill="black" fill-opacity="0.7"/>
<path d="M4.13168 0.103637V10.1979H2.46657V2.07966L0 2.91567V1.54074L3.93131 0.103637H4.13168ZM14.3711 8.87137V10.1979H7.62772V9.05792L10.9027 5.48588C11.2619 5.08054 11.5452 4.73047 11.7525 4.43568C11.9598 4.14089 12.1049 3.87604 12.1878 3.64113C12.2753 3.40161 12.319 3.169 12.319 2.9433C12.319 2.62548 12.2592 2.34681 12.1394 2.1073C12.0242 1.86317 11.8538 1.67202 11.6281 1.53383C11.4024 1.39105 11.1284 1.31965 10.8059 1.31965C10.4328 1.31965 10.1196 1.40026 9.86629 1.56147C9.61295 1.72269 9.4218 1.94608 9.29283 2.23166C9.16386 2.51263 9.09937 2.83506 9.09937 3.19894H7.43426C7.43426 2.61397 7.56784 2.07966 7.83499 1.59602C8.10215 1.10777 8.48906 0.720856 8.99573 0.435277C9.5024 0.145092 10.1127 0 10.8267 0C11.4992 0 12.0703 0.11285 12.5401 0.338549C13.01 0.564248 13.3669 0.884373 13.6111 1.29892C13.8598 1.71347 13.9841 2.20402 13.9841 2.77058C13.9841 3.08379 13.9335 3.3947 13.8321 3.70331C13.7308 4.01192 13.5857 4.32053 13.3969 4.62914C13.2126 4.93314 12.9938 5.23945 12.7405 5.54806C12.4872 5.85206 12.2085 6.16067 11.9045 6.47389L9.7281 8.87137H14.3711ZM15.7874 9.36883C15.7874 9.11089 15.875 8.8944 16.05 8.71937C16.225 8.53973 16.4622 8.44991 16.7616 8.44991C17.0656 8.44991 17.3029 8.53973 17.4733 8.71937C17.6483 8.8944 17.7358 9.11089 17.7358 9.36883C17.7358 9.62677 17.6483 9.84326 17.4733 10.0183C17.3029 10.1933 17.0656 10.2808 16.7616 10.2808C16.4622 10.2808 16.225 10.1933 16.05 10.0183C15.875 9.84326 15.7874 9.62677 15.7874 9.36883ZM15.7944 3.48222C15.7944 3.22428 15.8819 3.00779 16.0569 2.83276C16.2319 2.65312 16.4691 2.5633 16.7685 2.5633C17.0725 2.5633 17.3098 2.65312 17.4802 2.83276C17.6552 3.00779 17.7427 3.22428 17.7427 3.48222C17.7427 3.74016 17.6552 3.95665 17.4802 4.13168C17.3098 4.30671 17.0725 4.39423 16.7685 4.39423C16.4691 4.39423 16.2319 4.30671 16.0569 4.13168C15.8819 3.95665 15.7944 3.74016 15.7944 3.48222ZM21.3562 4.41496H22.3511C22.7381 4.41496 23.0582 4.34817 23.3115 4.21459C23.5695 4.08101 23.7606 3.89677 23.885 3.66186C24.0093 3.42695 24.0715 3.15749 24.0715 2.85349C24.0715 2.53566 24.014 2.2639 23.8988 2.0382C23.7883 1.8079 23.6178 1.63056 23.3875 1.5062C23.1618 1.38183 22.8739 1.31965 22.5239 1.31965C22.2291 1.31965 21.9619 1.37953 21.7224 1.49929C21.4875 1.61444 21.301 1.78026 21.1628 1.99675C21.0246 2.20863 20.9555 2.46197 20.9555 2.75676H19.2835C19.2835 2.22245 19.424 1.74802 19.7049 1.33347C19.9859 0.918919 20.3682 0.594188 20.8519 0.359277C21.3401 0.119759 21.8882 0 22.4962 0C23.1457 0 23.7123 0.108244 24.1959 0.324731C24.6841 0.536612 25.0641 0.854433 25.3359 1.2782C25.6077 1.70196 25.7435 2.22705 25.7435 2.85349C25.7435 3.13906 25.6768 3.42925 25.5432 3.72404C25.4096 4.01883 25.2115 4.28829 24.949 4.53241C24.6864 4.77193 24.3594 4.96769 23.9679 5.11969C23.5764 5.26709 23.1227 5.34078 22.6068 5.34078H21.3562V4.41496ZM21.3562 5.71388V4.80187H22.6068C23.1964 4.80187 23.6984 4.87096 24.113 5.00914C24.5321 5.14733 24.873 5.33848 25.1355 5.58261C25.3981 5.82212 25.5892 6.09619 25.709 6.4048C25.8334 6.7134 25.8955 7.04044 25.8955 7.3859C25.8955 7.85572 25.8103 8.27488 25.6399 8.64337C25.4741 9.00725 25.2369 9.31586 24.9283 9.56919C24.6197 9.82253 24.2581 10.0137 23.8435 10.1427C23.4336 10.2716 22.9868 10.3361 22.5031 10.3361C22.0702 10.3361 21.6556 10.2762 21.2595 10.1565C20.8634 10.0367 20.5087 9.85938 20.1955 9.62447C19.8823 9.38495 19.6335 9.08785 19.4493 8.73318C19.2697 8.37391 19.1798 7.95936 19.1798 7.48953H20.845C20.845 7.78893 20.914 8.05378 21.0522 8.28409C21.195 8.50979 21.3931 8.68712 21.6464 8.81609C21.9044 8.94507 22.1991 9.00955 22.5308 9.00955C22.8809 9.00955 23.1826 8.94737 23.4359 8.823C23.6892 8.69864 23.8827 8.51439 24.0163 8.27027C24.1544 8.02615 24.2235 7.73136 24.2235 7.3859C24.2235 6.99438 24.1475 6.67656 23.9955 6.43243C23.8435 6.18831 23.627 6.00867 23.3461 5.89352C23.0651 5.77376 22.7335 5.71388 22.3511 5.71388H21.3562ZM34 4.32514V5.96952C34 6.75716 33.9217 7.42966 33.7651 7.98699C33.6131 8.53973 33.392 8.98882 33.1018 9.33428C32.8116 9.67974 32.4639 9.93308 32.0585 10.0943C31.6578 10.2555 31.2087 10.3361 30.7112 10.3361C30.3151 10.3361 29.9466 10.2854 29.6058 10.1841C29.2695 10.0828 28.9655 9.92386 28.6938 9.70738C28.422 9.49089 28.1894 9.21222 27.9959 8.87137C27.8071 8.52591 27.6597 8.11366 27.5537 7.63463C27.4524 7.15559 27.4017 6.60056 27.4017 5.96952V4.32514C27.4017 3.53289 27.4801 2.865 27.6367 2.32148C27.7933 1.77335 28.0167 1.32886 28.3068 0.988011C28.597 0.642552 28.9425 0.391519 29.3432 0.234912C29.7486 0.0783039 30.2 0 30.6974 0C31.0982 0 31.4666 0.0506672 31.8029 0.152002C32.1437 0.24873 32.4477 0.403035 32.7149 0.614916C32.9867 0.826797 33.217 1.10316 33.4058 1.44402C33.5993 1.78026 33.7467 2.1879 33.848 2.66694C33.9493 3.14137 34 3.6941 34 4.32514ZM32.3349 6.20443V4.07641C32.3349 3.67568 32.3119 3.32331 32.2658 3.01931C32.2197 2.7107 32.1506 2.45045 32.0585 2.23857C31.971 2.02208 31.8605 1.84705 31.7269 1.71347C31.5933 1.57529 31.4413 1.47626 31.2709 1.41638C31.1005 1.35189 30.9093 1.31965 30.6974 1.31965C30.4395 1.31965 30.2092 1.37032 30.0065 1.47165C29.8038 1.56838 29.6334 1.72499 29.4952 1.94148C29.357 2.15796 29.2511 2.44354 29.1774 2.79821C29.1083 3.14828 29.0738 3.57434 29.0738 4.07641V6.20443C29.0738 6.60977 29.0968 6.96674 29.1429 7.27535C29.1889 7.58396 29.258 7.84881 29.3501 8.0699C29.4423 8.28639 29.5528 8.46603 29.6818 8.60882C29.8153 8.747 29.9674 8.84834 30.1378 8.91282C30.3128 8.97731 30.504 9.00955 30.7112 9.00955C30.9738 9.00955 31.2064 8.95888 31.4091 8.85755C31.6117 8.75621 31.7822 8.595 31.9203 8.37391C32.0585 8.14821 32.1622 7.85572 32.2313 7.49644C32.3003 7.13717 32.3349 6.7065 32.3349 6.20443Z" fill="black" fill-opacity="0.7"/>
<path d="M4.13168 0.103637V10.1979H2.46657V2.07966L0 2.91567V1.54074L3.93131 0.103637H4.13168ZM14.3711 8.87137V10.1979H7.62772V9.05792L10.9027 5.48588C11.2619 5.08054 11.5452 4.73047 11.7525 4.43568C11.9598 4.14089 12.1049 3.87604 12.1878 3.64113C12.2753 3.40161 12.319 3.169 12.319 2.9433C12.319 2.62548 12.2592 2.34681 12.1394 2.1073C12.0242 1.86317 11.8538 1.67202 11.6281 1.53383C11.4024 1.39105 11.1284 1.31965 10.8059 1.31965C10.4328 1.31965 10.1196 1.40026 9.86629 1.56147C9.61295 1.72269 9.4218 1.94608 9.29283 2.23166C9.16386 2.51263 9.09937 2.83506 9.09937 3.19894H7.43426C7.43426 2.61397 7.56784 2.07966 7.83499 1.59602C8.10215 1.10777 8.48906 0.720856 8.99573 0.435277C9.5024 0.145092 10.1127 0 10.8267 0C11.4992 0 12.0703 0.11285 12.5401 0.338549C13.01 0.564248 13.3669 0.884373 13.6111 1.29892C13.8598 1.71347 13.9841 2.20402 13.9841 2.77058C13.9841 3.08379 13.9335 3.3947 13.8321 3.70331C13.7308 4.01192 13.5857 4.32053 13.3969 4.62914C13.2126 4.93314 12.9938 5.23945 12.7405 5.54806C12.4872 5.85206 12.2085 6.16067 11.9045 6.47389L9.7281 8.87137H14.3711ZM15.7874 9.36883C15.7874 9.11089 15.875 8.8944 16.05 8.71937C16.225 8.53973 16.4622 8.44991 16.7616 8.44991C17.0656 8.44991 17.3029 8.53973 17.4733 8.71937C17.6483 8.8944 17.7358 9.11089 17.7358 9.36883C17.7358 9.62677 17.6483 9.84326 17.4733 10.0183C17.3029 10.1933 17.0656 10.2808 16.7616 10.2808C16.4622 10.2808 16.225 10.1933 16.05 10.0183C15.875 9.84326 15.7874 9.62677 15.7874 9.36883ZM15.7944 3.48222C15.7944 3.22428 15.8819 3.00779 16.0569 2.83276C16.2319 2.65312 16.4691 2.5633 16.7685 2.5633C17.0725 2.5633 17.3098 2.65312 17.4802 2.83276C17.6552 3.00779 17.7427 3.22428 17.7427 3.48222C17.7427 3.74016 17.6552 3.95665 17.4802 4.13168C17.3098 4.30671 17.0725 4.39423 16.7685 4.39423C16.4691 4.39423 16.2319 4.30671 16.0569 4.13168C15.8819 3.95665 15.7944 3.74016 15.7944 3.48222ZM21.3562 4.41496H22.3511C22.7381 4.41496 23.0582 4.34817 23.3115 4.21459C23.5695 4.08101 23.7606 3.89677 23.885 3.66186C24.0093 3.42695 24.0715 3.15749 24.0715 2.85349C24.0715 2.53566 24.014 2.2639 23.8988 2.0382C23.7883 1.8079 23.6178 1.63056 23.3875 1.5062C23.1618 1.38183 22.8739 1.31965 22.5239 1.31965C22.2291 1.31965 21.9619 1.37953 21.7224 1.49929C21.4875 1.61444 21.301 1.78026 21.1628 1.99675C21.0246 2.20863 20.9555 2.46197 20.9555 2.75676H19.2835C19.2835 2.22245 19.424 1.74802 19.7049 1.33347C19.9859 0.918919 20.3682 0.594188 20.8519 0.359277C21.3401 0.119759 21.8882 0 22.4962 0C23.1457 0 23.7123 0.108244 24.1959 0.324731C24.6841 0.536612 25.0641 0.854433 25.3359 1.2782C25.6077 1.70196 25.7435 2.22705 25.7435 2.85349C25.7435 3.13906 25.6768 3.42925 25.5432 3.72404C25.4096 4.01883 25.2115 4.28829 24.949 4.53241C24.6864 4.77193 24.3594 4.96769 23.9679 5.11969C23.5764 5.26709 23.1227 5.34078 22.6068 5.34078H21.3562V4.41496ZM21.3562 5.71388V4.80187H22.6068C23.1964 4.80187 23.6984 4.87096 24.113 5.00914C24.5321 5.14733 24.873 5.33848 25.1355 5.58261C25.3981 5.82212 25.5892 6.09619 25.709 6.4048C25.8334 6.7134 25.8955 7.04044 25.8955 7.3859C25.8955 7.85572 25.8103 8.27488 25.6399 8.64337C25.4741 9.00725 25.2369 9.31586 24.9283 9.56919C24.6197 9.82253 24.2581 10.0137 23.8435 10.1427C23.4336 10.2716 22.9868 10.3361 22.5031 10.3361C22.0702 10.3361 21.6556 10.2762 21.2595 10.1565C20.8634 10.0367 20.5087 9.85938 20.1955 9.62447C19.8823 9.38495 19.6335 9.08785 19.4493 8.73318C19.2697 8.37391 19.1798 7.95936 19.1798 7.48953H20.845C20.845 7.78893 20.914 8.05378 21.0522 8.28409C21.195 8.50979 21.3931 8.68712 21.6464 8.81609C21.9044 8.94507 22.1991 9.00955 22.5308 9.00955C22.8809 9.00955 23.1826 8.94737 23.4359 8.823C23.6892 8.69864 23.8827 8.51439 24.0163 8.27027C24.1544 8.02615 24.2235 7.73136 24.2235 7.3859C24.2235 6.99438 24.1475 6.67656 23.9955 6.43243C23.8435 6.18831 23.627 6.00867 23.3461 5.89352C23.0651 5.77376 22.7335 5.71388 22.3511 5.71388H21.3562ZM34 4.32514V5.96952C34 6.75716 33.9217 7.42966 33.7651 7.98699C33.6131 8.53973 33.392 8.98882 33.1018 9.33428C32.8116 9.67974 32.4639 9.93308 32.0585 10.0943C31.6578 10.2555 31.2087 10.3361 30.7112 10.3361C30.3151 10.3361 29.9466 10.2854 29.6058 10.1841C29.2695 10.0828 28.9655 9.92386 28.6938 9.70738C28.422 9.49089 28.1894 9.21222 27.9959 8.87137C27.8071 8.52591 27.6597 8.11366 27.5537 7.63463C27.4524 7.15559 27.4017 6.60056 27.4017 5.96952V4.32514C27.4017 3.53289 27.4801 2.865 27.6367 2.32148C27.7933 1.77335 28.0167 1.32886 28.3068 0.988011C28.597 0.642552 28.9425 0.391519 29.3432 0.234912C29.7486 0.0783039 30.2 0 30.6974 0C31.0982 0 31.4666 0.0506672 31.8029 0.152002C32.1437 0.24873 32.4477 0.403035 32.7149 0.614916C32.9867 0.826797 33.217 1.10316 33.4058 1.44402C33.5993 1.78026 33.7467 2.1879 33.848 2.66694C33.9493 3.14137 34 3.6941 34 4.32514ZM32.3349 6.20443V4.07641C32.3349 3.67568 32.3119 3.32331 32.2658 3.01931C32.2197 2.7107 32.1506 2.45045 32.0585 2.23857C31.971 2.02208 31.8605 1.84705 31.7269 1.71347C31.5933 1.57529 31.4413 1.47626 31.2709 1.41638C31.1005 1.35189 30.9093 1.31965 30.6974 1.31965C30.4395 1.31965 30.2092 1.37032 30.0065 1.47165C29.8038 1.56838 29.6334 1.72499 29.4952 1.94148C29.357 2.15796 29.2511 2.44354 29.1774 2.79821C29.1083 3.14828 29.0738 3.57434 29.0738 4.07641V6.20443C29.0738 6.60977 29.0968 6.96674 29.1429 7.27535C29.1889 7.58396 29.258 7.84881 29.3501 8.0699C29.4423 8.28639 29.5528 8.46603 29.6818 8.60882C29.8153 8.747 29.9674 8.84834 30.1378 8.91282C30.3128 8.97731 30.504 9.00955 30.7112 9.00955C30.9738 9.00955 31.2064 8.95888 31.4091 8.85755C31.6117 8.75621 31.7822 8.595 31.9203 8.37391C32.0585 8.14821 32.1622 7.85572 32.2313 7.49644C32.3003 7.13717 32.3349 6.7065 32.3349 6.20443Z" fill="black" fill-opacity="0.7"/>
</svg>
